<?xml version="1.0" encoding="UTF-8"?> <svg xmlns="http://www.w3.org/2000/svg" id="_Layer_" data-name="&lt;Layer&gt;" viewBox="0 0 270.5 241.96"><defs><style>.cls-1{fill:#e0e0e0;}.cls-2{fill:#ededed;}.cls-3{fill:#fff;}.cls-4{fill:#4f4f4f;}.cls-5{fill:#949494;}.cls-6{fill:#a1c181;}.cls-7{fill:#00cca5;}.cls-8{fill:#c18253;}.cls-9{fill:#1a9bdb;}.cls-10{fill:#403333;}.cls-11{fill:#965930;}.cls-12{fill:#ff971a;}.cls-13{fill:#f9624e;}</style></defs><path class="cls-1" d="M218.3,35.8,179.85,55.6,173.41,61l-15.8,13.35a.8.8,0,0,1-1,0L119,46.72,83.87,40.45,55.57,74.72A.8.8,0,0,1,55,75a.77.77,0,0,1-.61-.24L41.72,62V60.06a.82.82,0,0,1,.58.24L54.89,73l28-33.95a.8.8,0,0,1,.77-.27l35.78,6.38a.71.71,0,0,1,.33.15l37.25,27.44,16.36-13.83,5.47-4.62a.78.78,0,0,1,.15-.1l38.53-19.84a.81.81,0,0,1,.74,1.44Z"></path><rect class="cls-2" x="41.72" y="96.85" width="131.69" height="112.09"></rect><path class="cls-1" d="M104.2,161.83a3.32,3.32,0,0,0-3.26-2.81c-1.86,0-3.61,1.26-5.12,2.21s-3,2-4.45,3.07a100.76,100.76,0,0,0-8.19,7C77.94,176.16,73,181.4,67.57,186.06A67.23,67.23,0,0,1,59,192.4c-2.7,1.65-5.73,3.41-9,3.25a4.11,4.11,0,0,1-3.49-1.93,5.17,5.17,0,0,1,.25-4.77,21.68,21.68,0,0,1,3.31-4.7q2.07-2.38,4.12-4.79c5.53-6.49,11-13,16.29-19.69s10.44-13.42,15.37-20.34,9.64-14,14-21.28q1.6-2.66,3.16-5.34c.39-.68-.41-1.56-1.11-1.11a128.56,128.56,0,0,0-18.64,15.09c-5.83,5.56-11.34,11.45-17,17.23a209.83,209.83,0,0,1-17.61,16.52,59.75,59.75,0,0,1-7,5.05v1.87c1.22-.69,2.39-1.44,3.53-2.24a140.18,140.18,0,0,0,18.11-15.89c5.65-5.65,11.09-11.51,16.74-17.16A155.26,155.26,0,0,1,98,116.41c.62-.46,1.25-.9,1.89-1.35q-5.55,9.34-11.71,18.28c-4.76,6.92-9.75,13.68-14.9,20.31s-10.52,13.19-16,19.65c-2.69,3.2-5.4,6.37-8.13,9.54-2.22,2.57-5.1,5.83-4.74,9.5a5.36,5.36,0,0,0,2.35,4,6.78,6.78,0,0,0,4.16,1c3.31-.21,6.28-1.86,9-3.57,6-3.71,11.23-8.55,16.28-13.46S86.34,170.13,92,165.82c1.41-1.07,2.86-2.09,4.35-3,.72-.46,1.45-.9,2.2-1.32a4.16,4.16,0,0,1,2.8-.79c1.48.34,1.44,2.29,1.25,3.46a26.34,26.34,0,0,1-1.59,5,65.57,65.57,0,0,1-11.71,18.9c-2.43,2.84-5,5.53-7.72,8.12-1.36,1.3-2.75,2.58-4.15,3.84a27.11,27.11,0,0,1-4.38,3.48c-1.45.83-3.19,1.41-4.69.39-.86-.59-1.67.81-.82,1.4,3.28,2.23,7.12-.7,9.57-2.84,2.86-2.51,5.65-5.09,8.32-7.81a83.47,83.47,0,0,0,13.8-17.89,55.45,55.45,0,0,0,4.43-10.3A9.43,9.43,0,0,0,104.2,161.83Zm-47.47-65c-4.7,4.09-9.21,8.4-13.74,12.67-.42.4-.84.8-1.27,1.19v2.21c5.79-5.4,11.46-10.93,17.47-16.07Zm25.27,6a5.63,5.63,0,0,0-3.73-2.57c.94-1.14,1.92-2.28,2.88-3.45H79l-.76.9c-.65.77-1.31,1.53-2,2.29a16.87,16.87,0,0,0-3,.15,40.55,40.55,0,0,0-5.46,1.08A51.63,51.63,0,0,0,48.13,112a67.91,67.91,0,0,0-6.41,6.17v2.41q2.12-2.42,4.44-4.64a53.91,53.91,0,0,1,18.78-12.07,33.65,33.65,0,0,1,10-2.23q-4.49,5.07-9.26,9.89Q59.06,118.19,52,124.34A61.87,61.87,0,0,1,41.72,132v1.81a49.73,49.73,0,0,0,7.77-5.25c4.88-3.92,9.49-8.2,14-12.57s9-9.12,13.24-13.93l.29-.33a5.46,5.46,0,0,1,2.87,1.07c1.49,1.24,1.28,3.23.54,4.82a26.59,26.59,0,0,1-3.54,5.19c-1.3,1.63-2.68,3.18-4.11,4.69-2.88,3-6,5.88-9,8.68C57.25,132,51,138,45.09,144.44c-1.13,1.26-2.26,2.54-3.37,3.82v2.48q2.27-2.66,4.6-5.24C52.2,139,58.54,133,65,127.15c3.15-2.86,6.28-5.75,9.2-8.86,1.44-1.55,2.84-3.14,4.15-4.81a27.06,27.06,0,0,0,3.43-5.07A6,6,0,0,0,82,102.87Zm-38.64-6L41.72,98.5v2.28l3.92-3.93Z"></path><rect class="cls-3" x="141.07" y="94.45" width="32.34" height="114.49"></rect><path class="cls-4" d="M41.72,93v4H173.41V93a7.35,7.35,0,0,0-7.35-7.34h-117A7.35,7.35,0,0,0,41.72,93Z"></path><polygon class="cls-5" points="218.41 35.52 188.09 68.34 157.02 74.45 118.63 58.51 99.79 66.88 83.53 64.13 76.97 96.85 76.92 97.12 76.85 97.22 65.29 115.07 53.3 107.99 41.72 127.77 41.72 125.22 52.84 106.22 64.88 113.33 75.55 96.85 75.7 96.62 82.51 62.65 99.62 65.55 118.61 57.1 157.15 73.1 187.43 67.16 217.46 34.64 218.41 35.52"></polygon><circle class="cls-6" cx="165.14" cy="156.77" r="22.62" transform="translate(-62.49 162.69) rotate(-45)"></circle><circle class="cls-6" cx="244.31" cy="188.28" r="22.98"></circle><circle class="cls-7" cx="244.31" cy="188.28" r="22.98"></circle><path class="cls-8" d="M204.29,94.9s2.86,16.53,6.68,36.46q13.35-4.55,26.6-9.45l5.67-2.11c-9.1-19.15-12.3-26.28-12.3-26.28Z"></path><path class="cls-6" d="M41.51,183.42a21.76,21.76,0,0,0,.21,3,22.12,22.12,0,0,0,44-3,22.1,22.1,0,0,0-19.12-21.91,21.15,21.15,0,0,0-3-.21h-.07a22,22,0,0,0-6.58,1l-.41.13c-.55.19-1.09.39-1.61.62a22.11,22.11,0,0,0-13.46,20.35Z"></path><path class="cls-9" d="M41.51,183.42a21.76,21.76,0,0,0,.21,3v22.48h135l4.46-17.55,8.25-32.5.88-2.85.48-1.57s-.16-.55-.48-1.46c-1.22-3.41-4.8-11.93-11.07-15.47-6-3.36-12-4.89-25.41-2.51-1.15.21-2.35.44-3.61.7l-1.61.34c-3.3.73-6.94,1.63-11,2.75l-.75.2q-3.85,1-7.67,2.06l-.22,0-1.89.5c-21.87,5.74-42.27,10.5-51.39,12.84A83.83,83.83,0,0,0,58.76,161c-.64.32-1.28.66-1.92,1l-.65.36c-.41.23-.82.46-1.22.71a58.87,58.87,0,0,0-7,4.76A35.83,35.83,0,0,0,41.72,174v6.34A21.86,21.86,0,0,0,41.51,183.42Z"></path><path class="cls-9" d="M55.41,149.07c2.5-11.65,6.66-31,29.21-32.65a218,218,0,0,1,43.66,1.73,20.42,20.42,0,1,1-7.11,39.55l-27.1,3.86a20.41,20.41,0,0,1-38.66-12.49Z"></path><path class="cls-4" d="M131.58,142.72s10.31-4.88,7.31-11.66-13.91-9-24.23-10.33c-17.7-2.21-23.47,3.89-23.47,3.89s11,4.42,21.55,8.66A130.76,130.76,0,0,1,131.58,142.72Z"></path><path class="cls-10" d="M104.07,74.86S92.55,89.94,90.26,96.53c-2,5.83-4.57,12.36,2.82,19.64s12.07,9.62,12.07,9.62l7.36-14.28Z"></path><circle class="cls-10" cx="132.38" cy="87.75" r="5.08"></circle><circle class="cls-10" cx="126.81" cy="80.99" r="7.48" transform="translate(-20.13 113.39) rotate(-45)"></circle><circle class="cls-10" cx="118.03" cy="79.12" r="7.11"></circle><path class="cls-10" d="M102.89,78.23a5.41,5.41,0,1,0,5.4-5.41A5.4,5.4,0,0,0,102.89,78.23Z"></path><circle class="cls-8" cx="127.44" cy="106.85" r="18.38" transform="translate(-17.91 26.03) rotate(-10.9)"></circle><circle class="cls-8" cx="102.63" cy="115.07" r="5.67" transform="translate(-51.31 106.27) rotate(-45)"></circle><path class="cls-8" d="M96.26,97.92c.06.57-1.42,2.14-1.34,2.69a5.51,5.51,0,0,1,.41-.43c1.48-1.34,3.63-1.32,5.5-1.16A7,7,0,0,1,104,100l-.2-.36a.27.27,0,0,1,.46-.27,19.6,19.6,0,0,1,1.91,15.55,12,12,0,0,1-.39,1.15,2.27,2.27,0,0,1-.58,1.09c-.35.26-.74.1-1.1,0s-.79-.35-1.18-.54a16.22,16.22,0,0,1-2-1.21,18.2,18.2,0,0,0,2.66,2.72c3.13,2.52,4,2.54,4,2.54s22,4.51,25.34,2.09S144,98.93,144,98.93s-5.54-8.07-8.68-10.2-14.52-11.09-22.84-8.62S95.18,87.45,96.26,97.92Z"></path><path class="cls-10" d="M127.8,87.56a1.91,1.91,0,0,0,.39,1.88,1.81,1.81,0,0,0,1.59.35,19,19,0,0,0,2.09-.57L135.94,88l.14,0a.83.83,0,0,0,1.09-.34.81.81,0,0,0-.34-1.08,23.56,23.56,0,0,0-4.59-1.3c-1.24-.21-2.9-.6-3.8.57A3.76,3.76,0,0,0,127.8,87.56Z"></path><path class="cls-10" d="M97.88,86.18a7,7,0,1,0,6.48-7.49A7,7,0,0,0,97.88,86.18Z"></path><path class="cls-10" d="M91.61,97.12a8.25,8.25,0,1,0,7.63-8.81A8.24,8.24,0,0,0,91.61,97.12Z"></path><path class="cls-8" d="M102.91,129.83a120.91,120.91,0,0,1,23,11.1l.34-1.69,4.13-20.07-24.22-5-2.89,14.05Z"></path><path class="cls-11" d="M130.46,103.82a.82.82,0,0,1,1.08-.34,10.61,10.61,0,0,0,7.14,0,.81.81,0,0,1,.5,1.53,12.31,12.31,0,0,1-8.38-.12A.81.81,0,0,1,130.46,103.82Z"></path><path class="cls-3" d="M137.46,97.62a8,8,0,1,1,7.95-8A8,8,0,0,1,137.46,97.62Zm0-14.34a6.39,6.39,0,1,0,6.39,6.39A6.39,6.39,0,0,0,137.46,83.28Z"></path><path class="cls-11" d="M128,89.68a.83.83,0,0,1,1-.61.82.82,0,0,1,.61,1c-.74,2.09.64,4,2.52,4.83,1,.44,2.13.39,3.07.92a2.11,2.11,0,0,1,1,2.82c-.52.89-1.94.15-1.42-.74.43-.73-1.37-1-1.72-1a7.46,7.46,0,0,1-3-1.31A5.26,5.26,0,0,1,128,89.68Z"></path><path class="cls-10" d="M119.62,94.31a.76.76,0,0,1,.69-.17l.61.16a.9.9,0,0,1,.32.17,2.31,2.31,0,0,1,.35.18,2.48,2.48,0,0,1,.89.93,1,1,0,0,1,.13.4.82.82,0,0,1-.15.5.77.77,0,0,1-.64.33l-.17,0a2.47,2.47,0,0,1-.47,0,1.09,1.09,0,0,1-.26,0,2.72,2.72,0,0,1-.81-.42,2.05,2.05,0,0,1-.48-.54,2.26,2.26,0,0,1-.3-.87A.76.76,0,0,1,119.62,94.31Z"></path><path class="cls-10" d="M131.19,92.52a.87.87,0,0,1,.19-.37.84.84,0,0,1,.55-.26,2.25,2.25,0,0,1,.73,0,3.45,3.45,0,0,1,.42.14,1.34,1.34,0,0,1,.24.12,2.32,2.32,0,0,1,.55.44,1.82,1.82,0,0,1,.27.35,2.22,2.22,0,0,1,.2.41.77.77,0,0,1-.17.79.79.79,0,0,1-.77.24,4.49,4.49,0,0,1-1.67-.92l-.13-.09a1,1,0,0,1-.35-.37A.78.78,0,0,1,131.19,92.52Z"></path><path class="cls-10" d="M111.59,92.85a1.11,1.11,0,0,0,.84,1.08c.82.2,1.55-.64,2.21-1a6.09,6.09,0,0,1,2.26-.62,5.4,5.4,0,0,0,2.43-.58,2.35,2.35,0,0,0,.89-2.81.74.74,0,0,0-.57-1,7.17,7.17,0,0,0-4.74.76,7,7,0,0,0-3,3A2.6,2.6,0,0,0,111.59,92.85Z"></path><path class="cls-3" d="M119.91,104.82a8,8,0,1,1,8-8A8,8,0,0,1,119.91,104.82Zm0-14.34a6.39,6.39,0,1,0,6.38,6.38A6.39,6.39,0,0,0,119.91,90.48Z"></path><path class="cls-10" d="M104.9,84.72c.1.66.92.68,1.34.35a19.77,19.77,0,0,1,19.44-2.77c1,.39,1.37-1.17.42-1.55a20.67,20.67,0,0,0-4.75-1.25c-1.76-.3-3.51-.63-5.27-.9a12.43,12.43,0,0,0-5,0,9.07,9.07,0,0,0-3.93,2.44c-.52.52-1,1.07-1.47,1.62A2.34,2.34,0,0,0,104.9,84.72Z"></path><path class="cls-11" d="M100.26,113a.81.81,0,0,1,1-.56l5,1.48a.82.82,0,0,1,.19,1.47l-4.13,2.85a.81.81,0,0,1-.82-1.39l2.7-1.86-3.38-1A.81.81,0,0,1,100.26,113Z"></path><path class="cls-4" d="M88.37,125.7c3.49.82,7,1.78,10.37,2.87q1.53.48,3.06,1a136.61,136.61,0,0,1,25.4,11.77c1.84,1.09,3.64,2.21,5.42,3.38.95.63,1.83-.85.9-1.47q-2.93-1.92-5.94-3.7c-1-.62-2.12-1.23-3.19-1.82a139.7,139.7,0,0,0-22.23-9.85c-4.37-1.49-8.82-2.78-13.32-3.84C87.73,123.79,87.25,125.44,88.37,125.7Z"></path><path class="cls-9" d="M141.73,176.18s16.07,5.94,39.23,15.13l1.51.61c4.92,2,10.15,4.05,15.6,6.27,32,13,47.13,13.07,47.13,13.07l5.69-44.5s-4.7-3.18-32-13.74l-4.11-1.59-1.73-.68c-23.25-9-33.83-13.22-33.83-13.22Z"></path><path class="cls-8" d="M222.85,93.4c2.12,4.7,8.57,3.19,12.35,1.32a36.73,36.73,0,0,0,9.44-6.5,92.58,92.58,0,0,0,8.6-8.89,48.73,48.73,0,0,0,3.1-4.33,21.66,21.66,0,0,0,2.43-4.74,6,6,0,0,0-.32-4.82,4.15,4.15,0,0,0-4.08-2A7.57,7.57,0,0,0,250,65.82c-1.23,1.22-2.36,2.55-3.51,3.85A67.65,67.65,0,0,1,239,77.19,25.84,25.84,0,0,1,234.87,80c-1.72.93-3.56,1.58-5.33,2.37-3,1.33-6.24,3.43-7,6.82A6.58,6.58,0,0,0,222.85,93.4Z"></path><path class="cls-8" d="M201.57,86.51c0,8.39,8.31,8.42,11.09,6.8a11.65,11.65,0,0,0,3.8-3.69,15.11,15.11,0,0,0,1.94-4.27,22.23,22.23,0,0,0,.44-8.75c-.09-.78-.21-1.57-.34-2.35a.67.67,0,0,0-.13-.69c0-.15-.05-.3-.08-.45a.67.67,0,0,0-.65-.57.89.89,0,0,0-.54.15A4.36,4.36,0,0,1,216,71.28a5.67,5.67,0,0,1-.45-1.21,11.35,11.35,0,0,1,.45-6c.67-2.06,1.62-4,2.2-6.1s.76-4.39-.46-6.21a4.32,4.32,0,0,0-4.14-2,5.22,5.22,0,0,0-3.38,2.46A48.54,48.54,0,0,0,207.74,57a50.68,50.68,0,0,0-2.43,6.46,64.56,64.56,0,0,0-3.71,20.66C201.58,84.88,201.57,85.68,201.57,86.51Z"></path><path class="cls-8" d="M207.75,101.54c2,2.13,5.05,2.7,7.53,4.19a17.51,17.51,0,0,0,8.44,2.77,11,11,0,0,0,7.94-2.84c2.07-2,3.09-4.78,4.58-7.17,5-8.06,8.22-11.24,7.61-13.34-.47-1.62-.68-2.71-.81-2.94a42.69,42.69,0,0,0-5.37-7,41.73,41.73,0,0,0-5.8-5.07c-1.85-1.34-4.61-3.66-6.94-2.13a17.76,17.76,0,0,0-2.32,2.35A5.51,5.51,0,0,1,220,71.72a6.17,6.17,0,0,1-2.53,0,6,6,0,0,1-1.45-.48,2.64,2.64,0,0,1-.29-.15,5.21,5.21,0,0,1-1.3-1c-.72-.75-1.86.39-1.14,1.13a6.87,6.87,0,0,0,.57.52,24.69,24.69,0,0,0-7.09,4.81c-2.19,2.28-4.78,4.33-5.16,7.47C200.92,89.8,203.93,97.41,207.75,101.54Z"></path><path class="cls-9" d="M211,131.36c.1.53.2,1.06.3,1.61,5.6,29,13.08,64.32,16.78,66.58,6.32,3.86,25.57,13.56,33.54,3.86,5.15-6.27,13.42-17.55-4.67-55.07-5.23-10.85-9.52-19.8-13-27.1l-.69-1.44-5.67,2.11Q224.33,126.82,211,131.36Z"></path><path class="cls-7" d="M239.49,111.89s1.79-2.59,4.82,3.52,6.53,14.38,6.58,16a3.54,3.54,0,0,1-.92,2.52l-36,12.79s-1.51.61-3-3.95-4.83-17.54-4.18-19.33a3.29,3.29,0,0,1,2.27-2.12Z"></path><path class="cls-8" d="M222.17,73.74c1,3.2,5.78,2.83,8.2,1.71,6.39-3,8-14.14,6.31-20.15a15.42,15.42,0,0,0-3.82-6.69c-1.8-1.81-4.59-3.65-7.26-3s-3.43,3.82-2.35,6.07c.61,1.28,1.72,2.25,2.43,3.49A11.18,11.18,0,0,1,227,58.89a11.33,11.33,0,0,1-1.45,7.51C224.13,68.65,221.21,70.72,222.17,73.74Z"></path><path class="cls-8" d="M218.87,64.7c.11,2.17,2.27,3.37,4.22,3.53,2.15.18,4.85-1,6.81.3,1.58,1,2.12,3.12,3.79,4.13a4.24,4.24,0,0,0,5-.36c1.45-1.4,1.58-3.91,1.28-5.77,0-.15-.06-.3-.09-.44a.77.77,0,0,0,0-.26,6.89,6.89,0,0,0-.65-1.69,8.91,8.91,0,0,0-2-2.74.8.8,0,0,0-.78-.18,17.36,17.36,0,0,0-7.75-2.59,10.7,10.7,0,0,0-6.35,1.26C220.67,60.82,218.76,62.65,218.87,64.7Z"></path><path class="cls-8" d="M221.46,71.92c1.55,1.65,4,1.2,6,1.22a12.93,12.93,0,0,1,5.81,1.24,9.2,9.2,0,0,1,2.43,1.92,5.25,5.25,0,0,0,2.42,1.58,5.06,5.06,0,0,0,5.07-1.61,5.52,5.52,0,0,0,1.14-2.36.82.82,0,0,0,.7-1,8.93,8.93,0,0,0-.77-2.16.77.77,0,0,0-.16-.34c-1.8-3.28-5.47-5.3-9.12-6a25.57,25.57,0,0,0-6.93-.41,9.06,9.06,0,0,0-5.84,2.36C220.79,67.79,219.89,70.26,221.46,71.92Z"></path><path class="cls-3" d="M228.64,82.75a2.55,2.55,0,0,1,.52-.31,47.23,47.23,0,0,0,10.74-7.16,46.58,46.58,0,0,0,6-6.28c2.47-3.19,5.92-7.2,10.46-6.46a4.56,4.56,0,0,1,3.55,2.75A8.38,8.38,0,0,1,260,70.2a15.7,15.7,0,0,1-2,4.85,43.72,43.72,0,0,1-7.13,8.24c-3,3-6,5.93-8.81,9.15a.8.8,0,0,1-1.14,0,.81.81,0,0,1,0-1.14q3.44-4,7.22-7.62a71.6,71.6,0,0,0,7.06-7.41c1.9-2.46,3.51-5.48,3.44-8.67A3.37,3.37,0,0,0,257,64.43c-2.41-1.2-5,.37-6.85,1.95-2.07,1.82-3.41,4.2-5.25,6.21a51.81,51.81,0,0,1-9.52,8.15,48.4,48.4,0,0,1-5.32,3.08,2.23,2.23,0,0,1-1,.33.82.82,0,0,1-.82-.59A.84.84,0,0,1,228.64,82.75Z"></path><path class="cls-3" d="M223.9,64.78c2.25-1.66,5-1.51,7.62-1.43,5,.14,10.57,1.5,13,6.38a2.43,2.43,0,0,1,.34,1.28c-.05.66-.68,2-1.19,1.22-.14-.2-.11,0-.14-.2-.26-2.18-2.34-4.26-4.06-5.27a15.26,15.26,0,0,0-7-1.77c-1.24-.06-2.49-.07-3.72-.06a6.51,6.51,0,0,0-3.41.83,8.85,8.85,0,0,0-2.46,2.3c-.66.87-1.29,1.91-.74,3,1.14,2.26,4.4,2,6.51,2,1.49,0,3,0,4.49.17a2.76,2.76,0,0,1,2.68,2.11.84.84,0,0,1-.56,1,.8.8,0,0,1-1-.56c-.19-1.36-2.6-1-3.56-1-1.46,0-2.93-.06-4.39-.14-2.38-.14-5.21-1-5.9-3.57C219.75,68.59,222.09,66.11,223.9,64.78Z"></path><path class="cls-3" d="M226.42,76.62a9.32,9.32,0,0,0,1.13-.37l.06,0,.11,0,.26-.12a10.78,10.78,0,0,0,1.92-1.2c.45-.35,1.17-1.51,1.74-1.53a.58.58,0,0,1,.32,0,.83.83,0,0,1,.49.37l.08.2a.79.79,0,0,1,0,.43c-.29,1.06-1.42,1.67-2.27,2.22a11.72,11.72,0,0,1-3.41,1.61.81.81,0,0,1-1-.56A.82.82,0,0,1,226.42,76.62Z"></path><path class="cls-3" d="M219.65,60c2.88-3,7.7-2.87,11.47-2.12a21.92,21.92,0,0,1,6.68,2.54,4.31,4.31,0,0,1,2,2,11.17,11.17,0,0,1,.68,1.22c.12.26.23.52.33.79l.12.3.12.17a.84.84,0,0,1-.13,1,.86.86,0,0,1-.85.22.93.93,0,0,1-.59-.63c-.09-.26-.18-.52-.28-.77l-.12-.27c-.06-.13-.12-.26-.19-.39a10.26,10.26,0,0,0-.88-1.4l-.17-.21a2.44,2.44,0,0,0-.27-.29l-.09-.07L237.4,62l-.22-.07a.61.61,0,0,1-.36-.21,20.64,20.64,0,0,0-6-2.27,16.06,16.06,0,0,0-6.62-.12,5.89,5.89,0,0,0-4.45,3.47A3.25,3.25,0,0,0,221.4,67c1,.36.55,1.91-.43,1.55a4.65,4.65,0,0,1-3-3.65A5.7,5.7,0,0,1,219.65,60Z"></path><path class="cls-3" d="M217.94,79.43c.67,3,.65,6.59-1.77,8.86a.8.8,0,0,0,.29,1.33.71.71,0,0,0,.81-.16c2.5-2.35,3-5.92,2.47-9.16a28.09,28.09,0,0,0-.9-3.7c-.4-1.35-.85-2.7-1.2-4.06l-.18-.78a6,6,0,0,1-1.45-.48,5.67,5.67,0,0,1-.45-1.21c0,.36.1.71.16,1.06C216.23,74,217.32,76.62,217.94,79.43Z"></path><path class="cls-3" d="M56.53,160.84c12.32.76,24.72,1.9,37.08,1.26A101,101,0,0,0,104,161c1-.16,1.45,1.39.43,1.55-12.3,1.94-24.76,1.29-37.12.53l-10.81-.67C55.5,162.39,55.49,160.78,56.53,160.84Z"></path><path class="cls-3" d="M141,157.47c7-4.92,9.17-13.57,9.16-21.74l-1.61.34c0,7.47-1.92,15.51-8.37,20C139.36,156.67,140.16,158.06,141,157.47Z"></path><path class="cls-7" d="M66.87,88.52a2.82,2.82,0,1,1-2.82,2.82A2.81,2.81,0,0,1,66.87,88.52Z"></path><path class="cls-12" d="M58.44,88.52a2.82,2.82,0,1,1-2.81,2.82A2.82,2.82,0,0,1,58.44,88.52Z"></path><path class="cls-13" d="M50,88.52a2.82,2.82,0,1,1-2.81,2.82A2.82,2.82,0,0,1,50,88.52Z"></path><path class="cls-3" d="M213,150.75q.49,3.21,1.08,6.4c1.38,7.59,3.1,15.13,5.15,22.57a.81.81,0,0,0,1.56-.43c-.59-2.12-1.14-4.26-1.68-6.4q-2.64-10.63-4.38-21.46Z"></path><path class="cls-10" d="M83.65,107.32a4.44,4.44,0,0,1,2.9-2.25,7.78,7.78,0,0,1-1.34-3.16A.82.82,0,0,1,86.4,101a4.46,4.46,0,0,1,2.39,2.66.82.82,0,0,1-.52,1,7.56,7.56,0,0,0,.57.56.82.82,0,0,1,.12,1,.8.8,0,0,1-.79.39,3.48,3.48,0,0,1-4,1.94A.82.82,0,0,1,83.65,107.32Z"></path><path class="cls-3" d="M181,191.31l1.51.61q1.51-7.89,3-15.77a.81.81,0,0,0-.56-1,.82.82,0,0,0-1,.56q-1,5.11-1.93,10.22C181.63,187.73,181.3,189.52,181,191.31Z"></path><path class="cls-12" d="M223.89,35.08a6,6,0,1,1-6-6A6,6,0,0,1,223.89,35.08Z"></path><path class="cls-13" d="M160.74,74.21a3.5,3.5,0,1,1-3.5-3.5A3.5,3.5,0,0,1,160.74,74.21Z"></path><path class="cls-13" d="M103.73,65.22a3.5,3.5,0,1,1-3.5-3.5A3.5,3.5,0,0,1,103.73,65.22Z"></path><path class="cls-13" d="M68.77,113.52a3.5,3.5,0,1,1-3.5-3.5A3.51,3.51,0,0,1,68.77,113.52Z"></path><path class="cls-13" d="M56.57,107.11a3.5,3.5,0,1,1-3.5-3.5A3.5,3.5,0,0,1,56.57,107.11Z"></path><path class="cls-13" d="M87.05,63.19a3.5,3.5,0,1,1-3.5-3.5A3.5,3.5,0,0,1,87.05,63.19Z"></path><path class="cls-13" d="M121.53,57.89a3.5,3.5,0,1,1-3.5-3.5A3.5,3.5,0,0,1,121.53,57.89Z"></path><path class="cls-13" d="M190.75,68.51a3.5,3.5,0,1,1-3.5-3.5A3.5,3.5,0,0,1,190.75,68.51Z"></path><path class="cls-2" d="M58.44,74.21a3.5,3.5,0,1,1-3.5-3.5A3.5,3.5,0,0,1,58.44,74.21Z"></path><path class="cls-2" d="M87.05,39.72a3.5,3.5,0,1,1-3.5-3.5A3.5,3.5,0,0,1,87.05,39.72Z"></path><path class="cls-2" d="M123.41,45.94a3.5,3.5,0,1,1-3.5-3.5A3.5,3.5,0,0,1,123.41,45.94Z"></path><path class="cls-2" d="M183,54.64a3.5,3.5,0,1,1-3.5-3.5A3.5,3.5,0,0,1,183,54.64Z"></path><path class="cls-2" d="M44.39,39.24H66.72c.59,0,.7-1.16.11-1.16H44.5C43.91,38.08,43.8,39.24,44.39,39.24Z"></path><path class="cls-2" d="M44.51,43.65H49a.51.51,0,0,0,.51-.51c0-.28-.15-.65-.4-.65H44.61a.52.52,0,0,0-.51.51C44.08,43.29,44.26,43.65,44.51,43.65Z"></path><path class="cls-2" d="M66.83,42.35H52.41c-.59,0-.7,1.15-.11,1.15H66.72C67.31,43.5,67.42,42.35,66.83,42.35Z"></path><path class="cls-2" d="M58.22,47.49H44.73c-.59,0-.7,1.16-.11,1.16h13.5C58.7,48.65,58.82,47.49,58.22,47.49Z"></path><path class="cls-2" d="M66.48,47.64h-5a.51.51,0,0,0-.51.51c0,.28.15.65.4.65h5a.53.53,0,0,0,.51-.52C66.91,48,66.73,47.64,66.48,47.64Z"></path><path class="cls-13" d="M242.69,16.5l16.4,7.07L249.81,0Z"></path><path class="cls-9" d="M12.24,31.49,0,38.48,6.92,50.59l12.21-6.94Z"></path><path class="cls-7" d="M270.5,232l-10.07-5-5,10,10,5Z"></path><path class="cls-12" d="M23.66,214.7,7,211.26,20.2,231.5Z"></path></svg> 